<svg width="24" height="24" viewBox="0 0 24 24" fill="none" xmlns="http://www.w3.org/2000/svg">
<path fill-rule="evenodd" clip-rule="evenodd" d="M7.45455 3.81818C5.44624 3.81818 3.81818 5.44624 3.81818 7.45455V16.5455C3.81818 18.5538 5.44624 20.1818 7.45455 20.1818H16.5455C18.5538 20.1818 20.1818 18.5538 20.1818 16.5455V7.45455C20.1818 5.44624 18.5538 3.81818 16.5455 3.81818H7.45455ZM2 7.45455C2 4.44208 4.44208 2 7.45455 2H16.5455C19.5579 2 22 4.44208 22 7.45455V16.5455C22 19.5579 19.5579 22 16.5455 22H7.45455C4.44208 22 2 19.5579 2 16.5455V7.45455Z" fill="white"/>
<path fill-rule="evenodd" clip-rule="evenodd" d="M12.4392 9.26297C11.8717 9.17883 11.2922 9.27575 10.783 9.53995C10.2738 9.80416 9.86092 10.2222 9.60302 10.7346C9.34511 11.247 9.25534 11.8277 9.34648 12.394C9.43761 12.9604 9.70501 13.4836 10.1106 13.8892C10.5163 14.2948 11.0395 14.5622 11.6058 14.6534C12.1722 14.7445 12.7529 14.6547 13.2653 14.3968C13.7777 14.1389 14.1957 13.726 14.4599 13.2168C14.7241 12.7077 14.821 12.1281 14.7369 11.5607C14.6511 10.9819 14.3813 10.446 13.9676 10.0323C13.5538 9.61851 13.018 9.3488 12.4392 9.26297ZM9.94561 7.92609C10.7942 7.48575 11.7601 7.32421 12.7059 7.46445C13.6705 7.6075 14.5636 8.05703 15.2532 8.74662C15.9428 9.43621 16.3923 10.3293 16.5354 11.294C16.6756 12.2397 16.5141 13.2056 16.0738 14.0542C15.6334 14.9029 14.9367 15.5911 14.0827 16.0209C13.2287 16.4507 12.2609 16.6004 11.317 16.4485C10.373 16.2966 9.50104 15.8509 8.82499 15.1749C8.14894 14.4988 7.70328 13.6268 7.55139 12.6829C7.39949 11.7389 7.54911 10.7712 7.97895 9.91715C8.4088 9.06315 9.09698 8.36643 9.94561 7.92609Z" fill="white"/>
<path fill-rule="evenodd" clip-rule="evenodd" d="M16.0908 6.99991C16.0908 6.49783 16.4978 6.09082 16.9999 6.09082H17.009C17.5111 6.09082 17.9181 6.49783 17.9181 6.99991C17.9181 7.50199 17.5111 7.909 17.009 7.909H16.9999C16.4978 7.909 16.0908 7.50199 16.0908 6.99991Z" fill="white"/>
</svg>
