<svg width="16" height="16" viewBox="0 0 16 16" fill="none" xmlns="http://www.w3.org/2000/svg">
<path fill-rule="evenodd" clip-rule="evenodd" d="M7.99998 0.66803C7.64946 0.66803 7.3051 0.760153 7.00141 0.935155L4.87083 2.15262C4.73076 2.18034 4.6001 2.25269 4.50173 2.36354L2.33588 3.60116L2.33331 3.60265C2.08665 3.74506 1.87392 3.93811 1.70868 4.16826C1.66845 4.2085 1.63275 4.2546 1.60291 4.30619C1.5772 4.35063 1.5572 4.3968 1.54267 4.44386C1.40553 4.7195 1.33363 5.02365 1.33331 5.33265V10.6673C1.33367 11.0181 1.42626 11.3625 1.60177 11.6662C1.77729 11.9698 2.02958 12.222 2.33331 12.3973L2.33589 12.3988L6.99998 15.064L7.00121 15.0647C7.21268 15.1866 7.44387 15.2683 7.68313 15.3067C7.77738 15.3577 7.8853 15.3867 7.99998 15.3867C8.11466 15.3867 8.22259 15.3577 8.31683 15.3067C8.55611 15.2683 8.78731 15.1866 8.99878 15.0647L8.99998 15.064L13.6641 12.3988L13.6666 12.3973C13.9704 12.222 14.2227 11.9698 14.3982 11.6662C14.5737 11.3625 14.6663 11.0181 14.6666 10.6673V5.33265C14.6663 5.02365 14.5944 4.7195 14.4573 4.44386C14.4428 4.3968 14.4228 4.35063 14.3971 4.30619C14.3672 4.2546 14.3315 4.2085 14.2913 4.16826C14.126 3.93811 13.9133 3.74506 13.6666 3.60264L8.99998 0.935979L8.99859 0.935177C8.69489 0.760161 8.35052 0.66803 7.99998 0.66803ZM8.66665 13.7188L13 11.2426L13.001 11.242C13.1018 11.1836 13.1855 11.0998 13.2438 10.9989C13.3023 10.8977 13.3332 10.7829 13.3333 10.666V5.69169L8.66665 8.3912V13.7188ZM7.33331 8.3912L2.66665 5.69169V10.6663C2.66682 10.7831 2.69767 10.8978 2.75613 10.9989C2.81444 11.0998 2.89815 11.1836 2.99893 11.242L2.99998 11.2426L7.33331 13.7188V8.3912ZM8.33331 2.09069L12.6407 4.55202L11.0034 5.4991L6.37391 2.8294L7.66408 2.09216L7.66665 2.09068C7.76799 2.03217 7.88295 2.00136 7.99998 2.00136C8.117 2.00136 8.23196 2.03217 8.33331 2.09069ZM7.99998 7.2365L9.67101 6.26987L5.0333 3.59546L3.3593 4.55202L7.99998 7.2365Z" fill="#D03737"/>
</svg>
