<svg width="24" height="24" viewBox="0 0 24 24" fill="none" xmlns="http://www.w3.org/2000/svg">
<path fill-rule="evenodd" clip-rule="evenodd" d="M2 2.90909C2 2.40701 2.40294 2 2.9 2H19.1C19.5971 2 20 2.40701 20 2.90909V13.8182C20 14.0593 19.9052 14.2905 19.7364 14.461L16.1364 18.0973C15.9676 18.2678 15.7387 18.3636 15.5 18.3636H11.3728L8.0364 21.7337C7.779 21.9937 7.39189 22.0715 7.05558 21.9308C6.71928 21.7901 6.5 21.4586 6.5 21.0909V18.3636H2.9C2.40294 18.3636 2 17.9566 2 17.4545V2.90909ZM3.8 3.81818V16.5454H7.4C7.89706 16.5454 8.3 16.9524 8.3 17.4545V18.8961L10.3636 16.8117C10.5324 16.6412 10.7613 16.5454 11 16.5454H15.1272L18.2 13.4416V3.81818H3.8ZM10.1 6.54545C10.5971 6.54545 11 6.95246 11 7.45454V11.0909C11 11.593 10.5971 12 10.1 12C9.60294 12 9.2 11.593 9.2 11.0909V7.45454C9.2 6.95246 9.60294 6.54545 10.1 6.54545ZM14.6 6.54545C15.0971 6.54545 15.5 6.95246 15.5 7.45454V11.0909C15.5 11.593 15.0971 12 14.6 12C14.1029 12 13.7 11.593 13.7 11.0909V7.45454C13.7 6.95246 14.1029 6.54545 14.6 6.54545Z" fill="white"/>
</svg>
