<svg width="80" height="80" viewBox="0 0 80 80" fill="none" xmlns="http://www.w3.org/2000/svg">
<circle cx="40" cy="40" r="40" fill="#D03737" fill-opacity="0.4"/>
<path d="M44.9178 35.2037C42.8048 33.2544 42.8048 30.0792 44.9178 28.1288C47.0297 26.1784 50.4696 26.1794 52.5814 28.1298C54.6945 30.0792 54.6945 33.2544 52.5826 35.2037C50.4696 37.1541 47.0297 37.1541 44.9178 35.2037ZM50.803 29.7725C49.6707 28.7262 47.8297 28.7262 46.6974 29.7703C45.5638 30.8166 45.5638 32.5159 46.6974 33.5611C47.8297 34.6074 49.6707 34.6074 50.8042 33.5611C51.9365 32.5169 51.9365 30.8155 50.803 29.7725Z" fill="#D03737"/>
<path d="M49.1826 58.0623C51.7073 52.9541 52.0865 47.1344 52.1442 45.3932C54.172 43.5474 56.5758 41.3104 59.4862 38.559C69.8834 28.7306 73.6252 15.387 73.3157 10.427C73.2373 9.16628 72.8712 8.24118 72.2806 7.71925C71.7587 7.12867 70.8325 6.76255 69.5729 6.6841C64.6129 6.37464 51.2671 10.1143 41.4397 20.5137C38.6895 23.423 36.4525 25.8278 34.6066 27.8556C32.8643 27.9123 27.0424 28.2893 21.9375 30.8161C16.0121 33.7494 8.51981 42.9197 8.20382 43.3098L7.5228 44.1477L12.0633 48.6882L13.0233 49.6482L13.8557 48.7416C15.7441 46.6822 20.7258 42.0066 24.5701 40.9148C24.5613 40.9366 23.8062 42.096 23.8073 42.4915C23.8073 42.5961 23.8084 42.777 23.7942 42.8783L20.6169 46.0568C19.5948 47.0799 19.8193 48.9639 21.0963 50.2987C15.5403 52.5466 -1.29557 60.842 0.0795409 78.4733L0.181966 79.8157L1.52657 79.9203C19.1579 81.2954 27.4532 64.4595 29.7011 58.9024C31.0359 60.1816 32.9188 60.405 33.942 59.3808L37.1204 56.2034C37.2218 56.1882 37.4037 56.1903 37.5083 56.1903C37.9017 56.1925 39.0632 55.4374 39.0839 55.4265C37.9932 59.2718 33.3176 64.2547 31.2582 66.1419L30.3505 66.9744L31.3105 67.9344L35.8499 72.4738L36.6878 71.7949C37.0801 71.48 46.2493 63.9866 49.1826 58.0623ZM70.6015 9.39837C71.848 10.6449 69.9357 20.8111 63.3053 30.1711C61.879 29.2405 58.998 27.192 55.8871 24.1116C52.8078 21.0018 50.7593 18.1209 49.8277 16.6934C59.1876 10.0641 69.3549 8.15183 70.6015 9.39837ZM26.4704 38.2114C21.5463 37.7266 15.16 43.6639 12.7944 46.0677L10.893 44.1674C12.8718 41.8486 18.697 35.3087 23.2146 33.0738C27.1034 31.1485 31.5851 30.5786 33.8668 30.4097C32.9537 34.5764 27.7681 37.5315 26.4704 38.2114ZM22.4638 47.9037L25.7163 44.6522C25.7894 44.5781 25.8536 44.5008 25.9092 44.4223L28.0362 46.5482C27.3214 47.1693 26.7319 47.7719 26.3385 48.3341C25.9005 48.9574 25.2859 49.6787 24.5744 50.4371L22.8299 48.6937C22.4747 48.3385 22.4268 47.9778 22.4638 47.9037ZM2.57806 77.4196C2.19669 62.0754 17.7621 54.4524 22.4627 52.5412C19.9075 54.9503 17.0102 57.293 15.8116 58.0558L14.5662 58.8479L21.1519 65.4326L21.944 64.1871C22.7068 62.9885 25.0484 60.0901 27.4576 57.536C25.5475 62.2356 17.9222 77.801 2.57806 77.4196ZM28.2781 49.694C29.7011 47.6683 33.5486 45.1415 36.6573 43.3425C34.8583 46.4512 32.3315 50.2987 30.3048 51.7196C27.3127 53.816 22.8539 58.97 20.7901 61.7202L18.2785 59.2086C21.0277 57.1448 26.1816 52.6861 28.2781 49.694ZM35.3465 54.2802L32.094 57.5338C32.022 57.572 31.6625 57.5229 31.3062 57.1677L29.5627 55.4243C30.3211 54.7139 31.0403 54.0982 31.6657 53.6602C32.2269 53.2647 32.8305 52.6774 33.4516 51.9615L35.5775 54.0884C35.498 54.144 35.4195 54.2072 35.3465 54.2802ZM39.5154 52.2775C38.9477 52.6196 38.4247 52.8986 37.9474 53.1078L34.927 50.0884C38.3811 45.3191 41.8854 38.1166 41.8854 38.1166C41.8854 38.1166 34.6829 41.6198 29.9114 45.075L26.891 42.0546C27.1024 41.5762 27.378 41.0543 27.7224 40.4855C29.2664 39.6966 36.2411 35.7859 36.4688 29.696C38.3146 27.6649 40.5615 25.2514 43.3302 22.3192C44.8001 20.7632 46.3441 19.3761 47.9165 18.1317C48.9799 19.7488 51.0786 22.6668 54.1938 25.8082C57.3341 28.9213 60.2533 31.0221 61.8703 32.0866C60.6259 33.6568 59.2388 35.2019 57.6828 36.6729C54.7528 39.4416 52.3393 41.6874 50.3049 43.5321C44.2172 43.7577 40.3043 50.7346 39.5154 52.2775ZM35.8325 69.1046L33.9311 67.2043C36.3337 64.8398 42.2722 58.4513 41.7873 53.5284C42.4683 52.2328 45.4223 47.0462 49.5912 46.133C49.4212 48.4147 48.8492 52.8942 46.926 56.7842C44.689 61.3029 38.149 67.1259 35.8325 69.1046Z" fill="#D03737"/>
</svg>
