<svg width="24" height="24" viewBox="0 0 24 24" fill="none" xmlns="http://www.w3.org/2000/svg">
<path fill-rule="evenodd" clip-rule="evenodd" d="M10.3249 3.5976C11.3478 2.57467 12.7352 2 14.1818 2H16.9091C17.4112 2 17.8182 2.40701 17.8182 2.90909V6.54545C17.8182 7.04753 17.4112 7.45455 16.9091 7.45455H14.1818V9.27273H16.9091C17.189 9.27273 17.4534 9.4017 17.6256 9.62235C17.7979 9.843 17.8589 10.1307 17.791 10.4023L16.8819 14.0387C16.7808 14.4434 16.4172 14.7273 16 14.7273H14.1818V21.0909C14.1818 21.593 13.7748 22 13.2727 22H9.63636C9.13429 22 8.72727 21.593 8.72727 21.0909V14.7273H6.90909C6.40701 14.7273 6 14.3203 6 13.8182V10.1818C6 9.67974 6.40701 9.27273 6.90909 9.27273H8.72727V7.45455C8.72727 6.00791 9.30195 4.62053 10.3249 3.5976ZM14.1818 3.81818C13.2174 3.81818 12.2925 4.2013 11.6105 4.88325C10.9286 5.5652 10.5455 6.49012 10.5455 7.45455V10.1818C10.5455 10.6839 10.1384 11.0909 9.63636 11.0909H7.81818V12.9091H9.63636C10.1384 12.9091 10.5455 13.3161 10.5455 13.8182V20.1818H12.3636V13.8182C12.3636 13.3161 12.7707 12.9091 13.2727 12.9091H15.2902L15.7447 11.0909H13.2727C12.7707 11.0909 12.3636 10.6839 12.3636 10.1818V7.45455C12.3636 6.97233 12.5552 6.50987 12.8962 6.1689C13.2371 5.82792 13.6996 5.63636 14.1818 5.63636H16V3.81818H14.1818Z" fill="white"/>
</svg>
