<svg width="80" height="80" viewBox="0 0 80 80" fill="none" xmlns="http://www.w3.org/2000/svg">
<path fill-rule="evenodd" clip-rule="evenodd" d="M38.2432 39.8907C39.2194 38.9145 40.8022 38.9145 41.7784 39.8907L51.7775 49.8899C52.7538 50.8661 52.7538 52.4489 51.7775 53.4251C50.8013 54.4013 49.2185 54.4013 48.2423 53.4251L40.0108 45.1936L31.7792 53.4251C30.803 54.4013 29.2202 54.4013 28.244 53.4251C27.2678 52.4489 27.2678 50.8661 28.244 49.8899L38.2432 39.8907Z" fill="#043C60"/>
<path fill-rule="evenodd" clip-rule="evenodd" d="M31.6697 13.3486C35.0682 13.2234 38.4508 13.8702 41.5632 15.2404C44.6757 16.6107 47.437 18.6687 49.6396 21.2598C51.4181 23.3519 52.7949 25.7476 53.7073 28.3259H55.0095C58.3418 28.3281 61.5802 29.4399 64.2104 31.486C66.8406 33.532 68.7146 36.3957 69.5366 39.625C70.3585 42.8544 70.0816 46.2655 68.7496 49.32C67.4176 52.3745 65.1063 54.8985 62.1806 56.4935C60.9684 57.1543 59.45 56.7074 58.7892 55.4952C58.1284 54.2831 58.5753 52.7647 59.7875 52.1039C61.738 51.0405 63.2788 49.3579 64.1668 47.3215C65.0548 45.2852 65.2394 43.0111 64.6915 40.8582C64.1435 38.7053 62.8942 36.7962 61.1407 35.4322C59.3872 34.0682 57.2294 33.3269 55.0079 33.3255H51.8598C50.7202 33.3255 49.7248 32.5547 49.4396 31.4514C48.7775 28.8906 47.5435 26.5132 45.8304 24.4979C44.1173 22.4827 41.9696 20.882 39.5488 19.8162C37.1279 18.7505 34.497 18.2474 31.8538 18.3448C29.2106 18.4421 26.6238 19.1375 24.288 20.3785C21.9522 21.6195 19.9281 23.3739 18.3679 25.5097C16.8078 27.6456 15.7521 30.1074 15.2802 32.71C14.8084 35.3126 14.9327 37.9883 15.6438 40.5359C16.355 43.0835 17.6344 45.4368 19.3859 47.4188C20.3001 48.4533 20.2026 50.0331 19.168 50.9473C18.1335 51.8615 16.5537 51.764 15.6395 50.7295C13.3876 48.1812 11.7426 45.1556 10.8283 41.88C9.91405 38.6045 9.75421 35.1643 10.3608 31.8181C10.9675 28.4719 12.3248 25.3068 14.3308 22.5607C16.3367 19.8146 18.9391 17.5589 21.9423 15.9634C24.9455 14.3678 28.2713 13.4738 31.6697 13.3486Z" fill="#043C60"/>
<path fill-rule="evenodd" clip-rule="evenodd" d="M40.0108 39.1586C41.3914 39.1586 42.5106 40.2778 42.5106 41.6583V64.1564C42.5106 65.537 41.3914 66.6562 40.0108 66.6562C38.6302 66.6562 37.511 65.537 37.511 64.1564V41.6583C37.511 40.2778 38.6302 39.1586 40.0108 39.1586Z" fill="#043C60"/>
<path fill-rule="evenodd" clip-rule="evenodd" d="M38.2432 39.8907C39.2194 38.9145 40.8022 38.9145 41.7784 39.8907L51.7775 49.8899C52.7538 50.8661 52.7538 52.4489 51.7775 53.4251C50.8013 54.4013 49.2185 54.4013 48.2423 53.4251L40.0108 45.1936L31.7792 53.4251C30.803 54.4013 29.2202 54.4013 28.244 53.4251C27.2678 52.4489 27.2678 50.8661 28.244 49.8899L38.2432 39.8907Z" fill="#043C60"/>
</svg>
