<svg width="80" height="76" viewBox="0 0 80 76" fill="none" xmlns="http://www.w3.org/2000/svg">
<circle cx="42.353" cy="37.647" r="37.647" fill="#31B7FB" fill-opacity="0.4"/>
<path d="M61.1099 65.1951C60.5138 65.1555 59.955 64.8909 59.5467 64.4549C59.1383 64.0188 58.9109 63.4439 58.9104 62.8465V58.8609C60.6726 57.9615 62.2044 56.669 63.3875 55.0832C64.5705 53.4974 65.3731 51.6608 65.7331 49.7154H67.1306C68.0649 49.7154 68.961 49.3442 69.6216 48.6836C70.2823 48.0229 70.6535 47.1268 70.6535 46.1925V42.6695C70.6535 41.7352 70.2823 40.8391 69.6216 40.1785C68.961 39.5178 68.0649 39.1466 67.1306 39.1466H65.9563V32.1008C65.9584 29.7766 65.3302 27.4953 64.1384 25.5C65.3177 24.0459 65.9597 22.2298 65.9563 20.3577C65.9563 20.0462 65.8325 19.7475 65.6123 19.5273C65.3921 19.3071 65.0934 19.1833 64.7819 19.1833H50.6902C47.2656 19.1874 43.9823 20.5496 41.5607 22.9712C39.1391 25.3928 37.7769 28.6761 37.7728 32.1008V39.1466H36.5985C35.6642 39.1466 34.7681 39.5178 34.1074 40.1785C33.4467 40.8391 33.0756 41.7352 33.0756 42.6695V46.1925C33.0756 47.1268 33.4467 48.0229 34.1074 48.6836C34.7681 49.3442 35.6642 49.7154 36.5985 49.7154H37.9948C38.0147 49.8223 38.0229 49.9315 38.0441 50.0372C38.0555 50.0919 38.0712 50.1457 38.0911 50.198C38.7552 53.1911 40.4716 55.8463 42.928 57.6807C43.5208 58.1265 44.1537 58.516 44.8187 58.8445V62.8442C44.8182 63.4412 44.5911 64.0158 44.1833 64.4518C43.7754 64.8878 43.2172 65.1526 42.6215 65.1928L33.7414 65.7447C32.0436 65.8525 30.4208 66.4834 29.0961 67.5507C27.7714 68.6181 26.8097 70.0695 26.3433 71.7055L28.6015 72.3443C28.9356 71.1765 29.6228 70.1405 30.5689 69.3786C31.515 68.6167 32.6736 68.1661 33.8859 68.0886L38.7181 67.788C40.4459 69.5104 42.4964 70.875 44.7522 71.804C47.0081 72.7329 49.4249 73.2078 51.8645 73.2016C56.786 73.1898 61.5062 71.2467 65.0098 67.7904L69.8385 68.091C70.0463 68.1041 70.2533 68.128 70.4586 68.1626L70.8484 65.8457C70.563 65.7982 70.2753 65.7653 69.9865 65.7471L61.1099 65.1951ZM65.9563 41.4952H67.1306C67.442 41.4952 67.7407 41.619 67.9609 41.8392C68.1812 42.0594 68.3049 42.3581 68.3049 42.6695V46.1925C68.3049 46.5039 68.1812 46.8026 67.9609 47.0228C67.7407 47.2431 67.442 47.3668 67.1306 47.3668H65.9563V41.4952ZM37.7728 47.3668H36.5985C36.2871 47.3668 35.9884 47.2431 35.7681 47.0228C35.5479 46.8026 35.4242 46.5039 35.4242 46.1925V42.6695C35.4242 42.3581 35.5479 42.0594 35.7681 41.8392C35.9884 41.619 36.2871 41.4952 36.5985 41.4952H37.7728V47.3668ZM40.1214 32.1008C40.1245 29.2987 41.239 26.6123 43.2204 24.6309C45.2018 22.6496 47.8882 21.5351 50.6902 21.532H63.4902C63.216 22.8565 62.4944 24.0463 61.4467 24.9016C60.3989 25.757 59.0887 26.2257 57.7361 26.2292H43.6444C43.3329 26.2292 43.0342 26.3529 42.814 26.5732C42.5938 26.7934 42.4701 27.0921 42.4701 27.4035V30.9264C42.4701 31.5493 42.2226 32.1467 41.7822 32.5872C41.3417 33.0276 40.7443 33.2751 40.1214 33.2751V32.1008ZM40.1214 35.6237C41.3672 35.6237 42.562 35.1288 43.4429 34.2479C44.3238 33.367 44.8187 32.1722 44.8187 30.9264V28.5778H57.7361C59.3842 28.5817 60.9946 28.0855 62.3546 27.1546C63.1728 28.6751 63.6032 30.3741 63.6076 32.1008V38.6064C62.3198 37.4429 60.646 36.7985 58.9104 36.798H44.8187C43.083 36.7985 41.4093 37.4429 40.1214 38.6064V35.6237ZM44.8187 39.1466H58.9104C59.7575 39.1458 60.589 39.374 61.317 39.8071C62.0449 40.2402 62.6422 40.8621 63.0456 41.607C63.449 42.3518 63.6434 43.1919 63.6084 44.0382C63.5733 44.8846 63.3101 45.7057 62.8465 46.4146C62.3829 47.1236 61.7362 47.694 60.9749 48.0654C60.2136 48.4368 59.3661 48.5955 58.522 48.5246C57.6779 48.4537 56.8687 48.1559 56.18 47.6626C55.4914 47.1694 54.9489 46.4991 54.6101 45.7227C54.5187 45.5134 54.3683 45.3353 54.1772 45.2101C53.9862 45.085 53.7628 45.0183 53.5344 45.0182H50.1947C49.9663 45.0183 49.7429 45.085 49.5518 45.2101C49.3608 45.3353 49.2104 45.5134 49.119 45.7227C48.7802 46.4991 48.2377 47.1694 47.5491 47.6626C46.8604 48.1559 46.0512 48.4537 45.2071 48.5246C44.363 48.5955 43.5155 48.4368 42.7542 48.0654C41.9929 47.694 41.3462 47.1236 40.8826 46.4146C40.419 45.7057 40.1557 44.8846 40.1207 44.0382C40.0856 43.1919 40.2801 42.3518 40.6835 41.607C41.0869 40.8621 41.6842 40.2402 42.4121 39.8071C43.1401 39.374 43.9716 39.1458 44.8187 39.1466ZM44.349 55.8089C42.2995 54.2832 40.8793 52.0601 40.3563 49.5592C40.3454 49.5092 40.3317 49.4598 40.3152 49.4113C40.3035 49.3525 40.2999 49.2938 40.2894 49.2328C41.0758 49.896 41.9982 50.3786 42.9915 50.6464C43.9848 50.9142 45.0248 50.9608 46.038 50.7829C47.0513 50.6049 48.0132 50.2068 48.8557 49.6165C49.6983 49.0263 50.4011 48.2583 50.9145 47.3668H52.8145C53.3267 48.2563 54.0274 49.0229 54.8675 49.6127C55.7075 50.2026 56.6665 50.6014 57.677 50.7811C58.6876 50.9608 59.7253 50.9171 60.7172 50.6531C61.709 50.3891 62.6311 49.9111 63.4186 49.2527C63.1112 50.9581 62.3886 52.5616 61.3146 53.9215C60.2406 55.2814 58.8482 56.3559 57.2605 57.0501C55.9309 57.638 54.4926 57.9397 53.0388 57.9356H50.6902C49.2342 57.9386 47.7939 57.6353 46.4627 57.0454C45.7091 56.7234 44.999 56.308 44.349 55.8089V55.8089ZM51.8645 70.853C48.3292 70.86 44.8885 69.7115 42.0661 67.5825L42.7707 67.5391C43.963 67.4601 45.0807 66.931 45.8974 66.0588C46.7142 65.1867 47.169 64.0367 47.1696 62.8418V59.7792C48.3138 60.1115 49.4988 60.2815 50.6902 60.2842H53.0388C54.2309 60.2817 55.4168 60.1121 56.5618 59.7804V62.8442C56.5625 64.0393 57.0174 65.1894 57.8344 66.0616C58.6514 66.9338 59.7694 67.4628 60.9619 67.5414L61.6665 67.586C58.8431 69.7153 55.4008 70.8626 51.8645 70.853Z" fill="#31B7FB"/>
<path d="M43.645 46.1926H45.9936V45.0183H47.1679V42.6697H45.9936V41.4954H43.645V42.6697H42.4707V45.0183H43.645V46.1926Z" fill="#31B7FB"/>
<path d="M58.9111 42.6697C59.5597 42.6697 60.0854 42.1439 60.0854 41.4954C60.0854 40.8468 59.5597 40.321 58.9111 40.321C58.2626 40.321 57.7368 40.8468 57.7368 41.4954C57.7368 42.1439 58.2626 42.6697 58.9111 42.6697Z" fill="#31B7FB"/>
<path d="M56.562 45.0183C57.2106 45.0183 57.7363 44.4925 57.7363 43.844C57.7363 43.1954 57.2106 42.6697 56.562 42.6697C55.9135 42.6697 55.3877 43.1954 55.3877 43.844C55.3877 44.4925 55.9135 45.0183 56.562 45.0183Z" fill="#31B7FB"/>
<path d="M58.9111 47.3669C59.5597 47.3669 60.0854 46.8412 60.0854 46.1926C60.0854 45.5441 59.5597 45.0183 58.9111 45.0183C58.2626 45.0183 57.7368 45.5441 57.7368 46.1926C57.7368 46.8412 58.2626 47.3669 58.9111 47.3669Z" fill="#31B7FB"/>
<path d="M61.2588 45.0183C61.9073 45.0183 62.4331 44.4925 62.4331 43.844C62.4331 43.1954 61.9073 42.6697 61.2588 42.6697C60.6102 42.6697 60.0845 43.1954 60.0845 43.844C60.0845 44.4925 60.6102 45.0183 61.2588 45.0183Z" fill="#31B7FB"/>
<path d="M9.7409 47.5809L0.85842 48.1328C0.570803 48.1512 0.284298 48.1842 0 48.2315L0.389871 50.5484C0.594012 50.5139 0.799788 50.49 1.00638 50.4767L5.83867 50.1761C7.56651 51.8979 9.61689 53.262 11.8725 54.1906C14.1281 55.1191 16.5447 55.5937 18.9839 55.5873C23.9041 55.5748 28.623 53.6327 32.1268 50.1785L33.0028 50.2325L33.1484 47.8839L28.2292 47.5762C27.6331 47.5366 27.0744 47.272 26.666 46.8359C26.2577 46.3999 26.0302 45.825 26.0297 45.2276V41.2443C27.7897 40.3427 29.3196 39.0497 30.5021 37.4648C31.6846 35.8798 32.4883 34.045 32.8513 32.1011H34.2499C35.1843 32.1011 36.0803 31.73 36.741 31.0693C37.4017 30.4086 37.7728 29.5126 37.7728 28.5782V25.0553C37.7728 24.1209 37.4017 23.2249 36.741 22.5642C36.0803 21.9035 35.1843 21.5324 34.2499 21.5324H33.0756V18.0094H34.2499V15.6608H33.0756V14.4865C33.0716 11.0618 31.7093 7.77858 29.2877 5.35697C26.8661 2.93537 23.5829 1.57313 20.1582 1.56909H17.8096C14.3849 1.57313 11.1017 2.93537 8.68006 5.35697C6.25845 7.77858 4.89621 11.0618 4.89217 14.4865V21.5324H3.71786C2.78353 21.5324 1.88745 21.9035 1.22678 22.5642C0.5661 23.2249 0.194935 24.1209 0.194935 25.0553V28.5782C0.194935 29.5126 0.5661 30.4086 1.22678 31.0693C1.88745 31.73 2.78353 32.1011 3.71786 32.1011H5.11647C5.47951 34.045 6.28313 35.8798 7.46564 37.4648C8.64814 39.0497 10.1781 40.3427 11.938 41.2443V45.2299C11.9382 45.8274 11.7114 46.4025 11.3034 46.839C10.8955 47.2755 10.337 47.5407 9.7409 47.5809V47.5809ZM33.0756 23.881H34.2499C34.5614 23.881 34.8601 24.0047 35.0803 24.2249C35.3005 24.4451 35.4242 24.7438 35.4242 25.0553V28.5782C35.4242 28.8897 35.3005 29.1884 35.0803 29.4086C34.8601 29.6288 34.5614 29.7525 34.2499 29.7525H33.0756V23.881ZM4.89217 29.7525H3.71786C3.40642 29.7525 3.10773 29.6288 2.8875 29.4086C2.66728 29.1884 2.54355 28.8897 2.54355 28.5782V25.0553C2.54355 24.7438 2.66728 24.4451 2.8875 24.2249C3.10773 24.0047 3.40642 23.881 3.71786 23.881H4.89217V29.7525ZM7.24079 14.4865C7.2439 11.6844 8.35839 8.99803 10.3398 7.01667C12.3211 5.03531 15.0075 3.92082 17.8096 3.91771H20.1582C22.9603 3.92082 25.6467 5.03531 27.628 7.01667C29.6094 8.99803 30.7239 11.6844 30.727 14.4865V15.6608H27.2041C24.7133 15.658 22.3254 14.6673 20.5642 12.9061C18.803 11.1449 17.8124 8.75704 17.8096 6.26633H15.461C15.4572 8.55269 14.6205 10.7594 13.1076 12.4735C11.5946 14.1877 9.50897 15.292 7.24079 15.5798V14.4865ZM7.24079 17.9495C9.24015 17.7445 11.1535 17.0302 12.7982 15.875C14.4429 14.7198 15.764 13.1623 16.6353 11.3511C17.592 13.3429 19.0914 15.0243 20.9609 16.2021C22.8305 17.3799 24.9944 18.0063 27.2041 18.0094H30.727V20.9922C29.4391 19.8286 27.7654 19.1842 26.0297 19.1837H11.938C10.2024 19.1842 8.52864 19.8286 7.24079 20.9922V17.9495ZM11.938 21.5324H26.0297C26.8768 21.5315 27.7083 21.7597 28.4363 22.1928C29.1643 22.626 29.7616 23.2479 30.1649 23.9927C30.5683 24.7376 30.7628 25.5776 30.7277 26.424C30.6927 27.2703 30.4294 28.0914 29.9658 28.8004C29.5022 29.5093 28.8555 30.0797 28.0943 30.4511C27.333 30.8226 26.4854 30.9812 25.6413 30.9103C24.7972 30.8394 23.988 30.5416 23.2994 30.0484C22.6107 29.5551 22.0683 28.8848 21.7294 28.1085C21.6381 27.8992 21.4877 27.721 21.2966 27.5959C21.1055 27.4707 20.8821 27.404 20.6538 27.4039H17.314C17.0856 27.404 16.8622 27.4707 16.6712 27.5959C16.4801 27.721 16.3297 27.8992 16.2384 28.1085C15.8995 28.8848 15.3571 29.5551 14.6684 30.0484C13.9798 30.5416 13.1706 30.8394 12.3265 30.9103C11.4824 30.9812 10.6348 30.8226 9.87353 30.4511C9.11224 30.0797 8.46556 29.5093 8.00197 28.8004C7.53837 28.0914 7.27511 27.2703 7.24005 26.424C7.20499 25.5776 7.39945 24.7376 7.80283 23.9927C8.20622 23.2479 8.80351 22.626 9.53147 22.1928C10.2594 21.7597 11.091 21.5315 11.938 21.5324V21.5324ZM7.41694 31.6314C8.20408 32.2926 9.12665 32.7732 10.1196 33.0392C11.1126 33.3052 12.1519 33.3502 13.1641 33.1711C14.1764 32.9919 15.1371 32.593 15.9785 32.0023C16.8198 31.4117 17.5215 30.6437 18.0339 29.7525H19.9339C20.4463 30.6437 21.1479 31.4117 21.9893 32.0023C22.8307 32.593 23.7914 32.9919 24.8036 33.1711C25.8159 33.3502 26.8552 33.3052 27.8481 33.0392C28.8411 32.7732 29.7637 32.2926 30.5508 31.6314C30.1088 34.0669 28.8267 36.2702 26.9278 37.858C25.0289 39.4457 22.6334 40.3174 20.1582 40.3213H17.8096C15.3343 40.3174 12.9388 39.4457 11.0399 37.858C9.14105 36.2702 7.85901 34.0669 7.41694 31.6314V31.6314ZM14.2867 45.2299V42.1697C15.4322 42.4986 16.6178 42.667 17.8096 42.6699H20.1582C21.35 42.667 22.5356 42.4986 23.6811 42.1697V45.2299C23.6818 46.425 24.1367 47.5751 24.9538 48.4473C25.7708 49.3195 26.8888 49.8485 28.0813 49.9272L28.7859 49.9718C25.9589 52.0947 22.5192 53.2425 18.9839 53.2425C15.4486 53.2425 12.0088 52.0947 9.18193 49.9718L9.88651 49.9283C11.0792 49.8497 12.1974 49.3205 13.0144 48.4481C13.8315 47.5756 14.2863 46.4252 14.2867 45.2299Z" fill="#31B7FB"/>
<path d="M10.7637 28.5776H13.1123V27.4033H14.2866V25.0547H13.1123V23.8804H10.7637V25.0547H9.58936V27.4033H10.7637V28.5776Z" fill="#31B7FB"/>
<path d="M26.0312 25.0549C26.6798 25.0549 27.2056 24.5292 27.2056 23.8806C27.2056 23.2321 26.6798 22.7063 26.0312 22.7063C25.3827 22.7063 24.8569 23.2321 24.8569 23.8806C24.8569 24.5292 25.3827 25.0549 26.0312 25.0549Z" fill="#31B7FB"/>
<path d="M23.6821 27.4036C24.3307 27.4036 24.8564 26.8778 24.8564 26.2292C24.8564 25.5807 24.3307 25.0549 23.6821 25.0549C23.0336 25.0549 22.5078 25.5807 22.5078 26.2292C22.5078 26.8778 23.0336 27.4036 23.6821 27.4036Z" fill="#31B7FB"/>
<path d="M26.0312 29.7519C26.6798 29.7519 27.2056 29.2262 27.2056 28.5776C27.2056 27.9291 26.6798 27.4033 26.0312 27.4033C25.3827 27.4033 24.8569 27.9291 24.8569 28.5776C24.8569 29.2262 25.3827 29.7519 26.0312 29.7519Z" fill="#31B7FB"/>
<path d="M28.3784 27.4036C29.027 27.4036 29.5527 26.8778 29.5527 26.2292C29.5527 25.5807 29.027 25.0549 28.3784 25.0549C27.7299 25.0549 27.2041 25.5807 27.2041 26.2292C27.2041 26.8778 27.7299 27.4036 28.3784 27.4036Z" fill="#31B7FB"/>
</svg>
