<svg width="24" height="24" viewBox="0 0 24 24" fill="none" xmlns="http://www.w3.org/2000/svg">
<path fill-rule="evenodd" clip-rule="evenodd" d="M11.9999 5C11.9999 5 12 5 12 5.80183L12 6.60367L11.9371 6.60375C11.8954 6.60384 11.8338 6.60402 11.7548 6.60438C11.5966 6.60509 11.3688 6.60652 11.0907 6.60938C10.5343 6.61511 9.77842 6.62656 8.97906 6.64942C8.17837 6.67231 7.34072 6.70647 6.61869 6.75715C5.87863 6.80909 5.32875 6.87437 5.05479 6.9438C4.80589 7.0126 4.58 7.14292 4.39964 7.32184C4.22371 7.49637 4.09713 7.71115 4.03172 7.94573C3.78212 9.2877 3.66005 10.6488 3.66705 12.0121L3.6671 12.0211C3.65817 13.39 3.77931 14.7568 4.02911 16.1044C4.10129 16.327 4.22915 16.5294 4.40168 16.6937C4.58243 16.8658 4.80612 16.9904 5.05128 17.0553C5.32404 17.1251 5.87546 17.1907 6.61869 17.2429C7.34072 17.2935 8.17837 17.3277 8.97906 17.3506C9.77842 17.3734 10.5343 17.3849 11.0907 17.3906C11.3688 17.3935 11.5966 17.3949 11.7548 17.3956C11.8338 17.396 11.8954 17.3962 11.9371 17.3962H12.0629C12.1046 17.3962 12.1662 17.396 12.2452 17.3956C12.4034 17.3949 12.6312 17.3935 12.9093 17.3906C13.4657 17.3849 14.2216 17.3734 15.0209 17.3506C15.8216 17.3277 16.6593 17.2935 17.3813 17.2429C18.1214 17.1909 18.6712 17.1256 18.9452 17.0562C19.1941 16.9874 19.42 16.8571 19.6004 16.6782C19.7763 16.5036 19.9029 16.2889 19.9683 16.0543C20.2159 14.7225 20.338 13.3719 20.3329 12.0189L20.3329 12.011C20.3419 10.6373 20.2198 9.26582 19.9683 7.91367C19.9029 7.67908 19.7763 7.4643 19.6004 7.28977C19.4221 7.1129 19.1993 6.98352 18.9538 6.91411C18.6705 6.84999 18.1186 6.79088 17.3866 6.74397C16.6631 6.69761 15.8243 6.66638 15.0231 6.64547C14.2231 6.62458 13.4668 6.61412 12.91 6.60889C12.6318 6.60627 12.4038 6.60497 12.2456 6.60432L12.0631 6.60375L12 6.60367L12 5.80183C12 5 11.9999 5 11.9999 5L12.0664 5.00008C12.1093 5.00017 12.1723 5.00033 12.2527 5.00067C12.4136 5.00133 12.6447 5.00265 12.9263 5.0053C13.4893 5.01059 14.2558 5.02118 15.0683 5.04239C15.8795 5.06357 16.7427 5.09549 17.4973 5.14385C18.2303 5.19082 18.9259 5.25672 19.364 5.35966C19.3738 5.36195 19.3835 5.36442 19.3932 5.36705C19.9266 5.51226 20.4107 5.79034 20.7966 6.1732C21.1826 6.55606 21.4567 7.03015 21.5913 7.54758C21.5958 7.5649 21.5997 7.58236 21.603 7.59993C21.8762 9.05744 22.0089 10.5361 21.9995 12.0171C22.0047 13.4759 21.872 14.9322 21.603 16.3679C21.5997 16.3855 21.5958 16.403 21.5913 16.4204C21.4567 16.9378 21.1826 17.4119 20.7966 17.7947C20.4107 18.1776 19.9266 18.4557 19.3932 18.6009L19.3816 18.6039C18.9369 18.7184 18.2353 18.7908 17.5025 18.8423C16.7465 18.8953 15.8822 18.9303 15.0704 18.9535C14.2574 18.9768 13.4904 18.9884 12.9271 18.9942C12.6453 18.9971 12.4141 18.9985 12.2531 18.9993C12.1725 18.9996 12.1096 18.9998 12.0666 18.9999L12.0004 19L11.9334 18.9999C11.8904 18.9998 11.8275 18.9996 11.7469 18.9993C11.5859 18.9985 11.3547 18.9971 11.0729 18.9942C10.5096 18.9884 9.74263 18.9768 8.92956 18.9535C8.11783 18.9303 7.25347 18.8953 6.49745 18.8423C5.76474 18.7908 5.06307 18.7184 4.61838 18.6039L4.61375 18.6027C4.09122 18.4652 3.61439 18.2002 3.22934 17.8335C2.84429 17.4668 2.56404 17.0108 2.41566 16.5094C2.40813 16.484 2.40191 16.4582 2.39703 16.4321C2.12384 14.9748 1.99109 13.4963 2.00046 12.0155C1.9932 10.5458 2.12594 9.07847 2.39702 7.63204C2.40031 7.61446 2.40422 7.59698 2.40873 7.57965C2.54332 7.06222 2.81743 6.58814 3.20338 6.20527C3.58933 5.82241 4.07344 5.54433 4.60682 5.39913L4.61838 5.39607C5.06307 5.28163 5.76474 5.20916 6.49745 5.15773C7.25347 5.10467 8.11783 5.06967 8.92956 5.04646C9.74263 5.02321 10.5096 5.01161 11.0729 5.00581C11.3547 5.00291 11.5859 5.00146 11.7469 5.00073C11.8275 5.00037 11.8904 5.00018 11.9334 5.00009L11.9999 5Z" fill="white"/>
<path fill-rule="evenodd" clip-rule="evenodd" d="M9.81072 8.87428C10.0031 8.7666 10.2405 8.76548 10.4339 8.87135L15.2254 11.4933C15.4207 11.6002 15.5414 11.7998 15.5414 12.0161C15.5414 12.2323 15.4207 12.4319 15.2254 12.5388L10.4339 15.1608C10.2405 15.2667 10.0031 15.2656 9.81072 15.1579C9.61835 15.0502 9.5 14.8522 9.5 14.6381V9.3941C9.5 9.17995 9.61835 8.98195 9.81072 8.87428ZM10.7499 10.4279V13.6043L13.6522 12.0161L10.7499 10.4279Z" fill="white"/>
</svg>
