<svg width="16" height="16" viewBox="0 0 16 16" fill="none" xmlns="http://www.w3.org/2000/svg">
<path fill-rule="evenodd" clip-rule="evenodd" d="M4 4.66666C4 3.56209 4.89543 2.66666 6 2.66666C7.10457 2.66666 8 3.56209 8 4.66666C8 5.77123 7.10457 6.66666 6 6.66666C4.89543 6.66666 4 5.77123 4 4.66666ZM6 1.33333C4.15905 1.33333 2.66667 2.82571 2.66667 4.66666C2.66667 6.50761 4.15905 7.99999 6 7.99999C7.84095 7.99999 9.33333 6.50761 9.33333 4.66666C9.33333 2.82571 7.84095 1.33333 6 1.33333ZM3.33333 9.33333C2.44928 9.33333 1.60143 9.68452 0.976311 10.3096C0.35119 10.9348 0 11.7826 0 12.6667V14C0 14.3682 0.298477 14.6667 0.666667 14.6667C1.03486 14.6667 1.33333 14.3682 1.33333 14V12.6667C1.33333 12.1362 1.54405 11.6275 1.91912 11.2524C2.29419 10.8774 2.8029 10.6667 3.33333 10.6667H8.66667C9.1971 10.6667 9.70581 10.8774 10.0809 11.2524C10.456 11.6275 10.6667 12.1362 10.6667 12.6667V14C10.6667 14.3682 10.9651 14.6667 11.3333 14.6667C11.7015 14.6667 12 14.3682 12 14V12.6667C12 11.7826 11.6488 10.9348 11.0237 10.3096C10.3986 9.68452 9.55072 9.33333 8.66667 9.33333H3.33333ZM12.6878 9.92C12.7799 9.5635 13.1435 9.34912 13.5 9.44117C14.2151 9.62581 14.8486 10.0427 15.3011 10.6264C15.7536 11.2101 15.9994 11.9276 16 12.6662V14C16 14.3682 15.7015 14.6667 15.3333 14.6667C14.9651 14.6667 14.6667 14.3682 14.6667 14V12.6672C14.6663 12.2241 14.5188 11.7935 14.2473 11.4433C13.9759 11.0931 13.5957 10.8429 13.1667 10.7322C12.8102 10.6401 12.5958 10.2765 12.6878 9.92ZM10.832 1.44083C10.4753 1.3495 10.1122 1.56462 10.0208 1.9213C9.92951 2.27799 10.1446 2.64117 10.5013 2.7325C10.9315 2.84265 11.3128 3.09285 11.5851 3.44365C11.8574 3.79446 12.0052 4.22591 12.0052 4.67C12.0052 5.11408 11.8574 5.54554 11.5851 5.89634C11.3128 6.24715 10.9315 6.49735 10.5013 6.6075C10.1446 6.69882 9.92951 7.062 10.0208 7.41869C10.1122 7.77537 10.4753 7.99049 10.832 7.89916C11.549 7.71558 12.1846 7.29858 12.6384 6.7139C13.0922 6.12923 13.3386 5.41014 13.3386 4.67C13.3386 3.92985 13.0922 3.21076 12.6384 2.62609C12.1846 2.04141 11.549 1.62441 10.832 1.44083Z" fill="#D03737"/>
</svg>
