<svg width="16" height="16" viewBox="0 0 16 16" fill="none" xmlns="http://www.w3.org/2000/svg">
<path fill-rule="evenodd" clip-rule="evenodd" d="M3.79999 3.19999C3.64086 3.19999 3.48825 3.26321 3.37573 3.37573C3.26321 3.48825 3.19999 3.64086 3.19999 3.79999V12.2C3.19999 12.3591 3.26321 12.5117 3.37573 12.6242C3.48825 12.7367 3.64086 12.8 3.79999 12.8H6.19998C6.53135 12.8 6.79998 13.0686 6.79998 13.4C6.79998 13.7313 6.53135 13.9999 6.19998 13.9999H3.79999C3.3226 13.9999 2.86477 13.8103 2.52721 13.4727C2.18964 13.1352 2 12.6773 2 12.2V3.79999C2 3.3226 2.18964 2.86477 2.52721 2.52721C2.86477 2.18964 3.3226 2 3.79999 2H6.19998C6.53135 2 6.79998 2.26863 6.79998 2.6C6.79998 2.93137 6.53135 3.19999 6.19998 3.19999H3.79999ZM9.97575 4.57571C10.2101 4.3414 10.59 4.3414 10.8243 4.57571L13.8243 7.5757C14.0586 7.81001 14.0586 8.18991 13.8243 8.42422L10.8243 11.4242C10.59 11.6585 10.2101 11.6585 9.97575 11.4242C9.74144 11.1899 9.74144 10.81 9.97575 10.5757L11.9515 8.59997H6.19995C5.86858 8.59997 5.59995 8.33134 5.59995 7.99998C5.59995 7.66861 5.86858 7.39998 6.19995 7.39998H11.9515L9.97575 5.42424C9.74144 5.18992 9.74144 4.81003 9.97575 4.57571Z" fill="#D03737"/>
</svg>
