<svg width="24" height="24" viewBox="0 0 24 24" fill="none" xmlns="http://www.w3.org/2000/svg">
<path fill-rule="evenodd" clip-rule="evenodd" d="M14.3308 3.32514C15.2934 2.96385 16.3455 2.90198 17.345 3.14792C18.1398 3.34349 18.8707 3.7262 19.4768 4.25919C20.2221 3.98976 20.9291 3.62513 21.5793 3.17409L22.1083 3.91162L23 4.12517C22.6856 5.39462 22.0555 6.56469 21.1694 7.53168C21.183 7.67735 21.1901 7.82362 21.1906 7.97006L21.1906 7.97304C21.1906 13.4785 18.4953 17.5174 14.6239 19.5438C10.775 21.5585 5.85578 21.5362 1.47215 19.1412C1.10063 18.9382 0.919425 18.511 1.03419 18.1085C1.14895 17.7061 1.52966 17.4338 1.95432 17.4504C3.50239 17.511 5.03486 17.2083 6.42833 16.5769C5.04882 15.7398 4.05567 14.7459 3.36518 13.6738C2.4441 12.2435 2.09639 10.7284 2.03351 9.36784C1.9708 8.01121 2.18994 6.78972 2.42029 5.91378C2.53602 5.47371 2.6561 5.11515 2.74866 4.86337C2.795 4.73734 2.83459 4.63763 2.86353 4.56738C2.878 4.53225 2.88983 4.50444 2.89851 4.48436L2.90913 4.46006L2.91184 4.45396C2.91831 4.43936 2.92519 4.42488 2.93248 4.41053L3.75334 4.81416L4.50439 4.29546C5.34462 5.47208 6.46771 6.42608 7.77363 7.0725C8.81239 7.58668 9.94117 7.89355 11.0951 7.97883C11.0883 6.97732 11.3909 5.99708 11.9632 5.168C12.5418 4.32972 13.3683 3.68643 14.3308 3.32514ZM4.1247 6.65859C3.95612 7.38186 3.8215 8.29907 3.86711 9.28587C3.91894 10.4073 4.20219 11.5998 4.91585 12.7079C5.62581 13.8104 6.79663 14.884 8.71482 15.7224C9.01933 15.8555 9.22655 16.1405 9.25619 16.4669C9.28583 16.7933 9.13323 17.1099 8.85752 17.2939C7.83796 17.9745 6.72152 18.4866 5.55222 18.8177C8.46164 19.5466 11.3771 19.1985 13.7615 17.9504C17.0024 16.254 19.3546 12.8475 19.3551 7.97455C19.3543 7.77951 19.3352 7.58496 19.298 7.39339C19.2405 7.09748 19.3369 6.79286 19.555 6.58132C19.7594 6.38305 19.9488 6.17172 20.122 5.9491C19.9141 6.02451 19.7038 6.09376 19.4912 6.15671C19.1455 6.25907 18.771 6.15265 18.5341 5.88478C18.1047 5.39929 17.5341 5.05519 16.8994 4.89901C16.2648 4.74284 15.5966 4.78212 14.9854 5.01155C14.3741 5.24099 13.8493 5.6495 13.4818 6.18184C13.1143 6.71418 12.922 7.34467 12.9307 7.98802L12.9309 8.00012H12.9308V8.90266C12.9308 9.39201 12.5343 9.79221 12.0369 9.8049C10.2728 9.84988 8.5247 9.46511 6.9484 8.68486C5.89706 8.16445 4.94389 7.47889 4.1247 6.65859Z" fill="white"/>
</svg>
