<svg width="80" height="76" viewBox="0 0 80 76" fill="none" xmlns="http://www.w3.org/2000/svg">
<circle cx="37.6469" cy="37.6469" r="37.6469" fill="#31B7FB" fill-opacity="0.4"/>
<path d="M16.5332 62.5975C18.3647 62.605 20.1498 62.0214 21.6233 60.9335C23.0967 59.8456 24.1799 58.3113 24.7118 56.5587L27.7331 46.7284H60.1109L63.1346 56.5587C63.7206 58.4622 64.9525 60.1016 66.6177 61.1942C68.283 62.2867 70.2773 62.764 72.2567 62.5437C74.2362 62.3234 76.0768 61.4194 77.4611 59.9874C78.8454 58.5554 79.6866 56.6853 79.8398 54.6996C80.3166 48.5395 79.7286 42.3434 78.1016 36.383L74.6482 23.728C74.2378 22.2453 73.4347 20.9009 72.3237 19.8367C71.2127 18.7726 69.835 18.0281 68.336 17.6819V16.2109C68.336 15.2397 67.9501 14.3082 67.2634 13.6214C66.5766 12.9347 65.6451 12.5488 64.6739 12.5488H59.7911C58.8198 12.5488 57.8884 12.9347 57.2016 13.6214C56.5148 14.3082 56.129 15.2397 56.129 16.2109V17.4316H31.715V16.2109C31.715 15.2397 31.3292 14.3082 30.6424 13.6214C29.9556 12.9347 29.0241 12.5488 28.0529 12.5488H23.1701C22.1989 12.5488 21.2674 12.9347 20.5806 13.6214C19.8938 14.3082 19.508 15.2397 19.508 16.2109V17.6819C18.009 18.0281 16.6313 18.7726 15.5203 19.8367C14.4093 20.9009 13.6062 22.2453 13.1958 23.728L9.74241 36.383C8.11541 42.3434 7.52739 48.5395 8.00414 54.6996C8.17867 56.8449 9.15176 58.8466 10.731 60.309C12.3103 61.7714 14.3808 62.5881 16.5332 62.5975V62.5975ZM31.715 40.6249C31.715 39.9006 31.9298 39.1926 32.3322 38.5904C32.7346 37.9881 33.3065 37.5187 33.9757 37.2416C34.6448 36.9644 35.3812 36.8919 36.0915 37.0332C36.8019 37.1745 37.4544 37.5233 37.9666 38.0354C38.4787 38.5476 38.8275 39.2001 38.9688 39.9105C39.1101 40.6208 39.0376 41.3572 38.7604 42.0263C38.4833 42.6955 38.0139 43.2674 37.4116 43.6698C36.8094 44.0722 36.1014 44.287 35.3771 44.287C34.4058 44.287 33.4744 43.9012 32.7876 43.2144C32.1008 42.5276 31.715 41.5962 31.715 40.6249ZM48.8048 40.6249C48.8048 39.9006 49.0196 39.1926 49.422 38.5904C49.8244 37.9881 50.3963 37.5187 51.0655 37.2416C51.7346 36.9644 52.4709 36.8919 53.1813 37.0332C53.8917 37.1745 54.5442 37.5233 55.0564 38.0354C55.5685 38.5476 55.9173 39.2001 56.0586 39.9105C56.1999 40.6208 56.1274 41.3572 55.8502 42.0263C55.573 42.6955 55.1037 43.2674 54.5014 43.6698C53.8992 44.0722 53.1912 44.287 52.4669 44.287C51.4956 44.287 50.5642 43.9012 49.8774 43.2144C49.1906 42.5276 48.8048 41.5962 48.8048 40.6249ZM58.5704 16.2109C58.5704 15.8872 58.699 15.5767 58.9279 15.3478C59.1568 15.1188 59.4673 14.9902 59.7911 14.9902H64.6739C64.9976 14.9902 65.3081 15.1188 65.537 15.3478C65.766 15.5767 65.8946 15.8872 65.8946 16.2109V17.4316H58.5704V16.2109ZM52.3241 19.873L51.494 27.3315C51.461 27.63 51.3191 27.9058 51.0954 28.1062C50.8718 28.3067 50.5821 28.4176 50.2818 28.4179H37.5621C37.2618 28.4176 36.9722 28.3067 36.7486 28.1062C36.5249 27.9058 36.383 27.63 36.35 27.3315L35.5199 19.873H52.3241ZM21.9494 16.2109C21.9494 15.8872 22.078 15.5767 22.3069 15.3478C22.5359 15.1188 22.8464 14.9902 23.1701 14.9902H28.0529C28.3767 14.9902 28.6871 15.1188 28.9161 15.3478C29.145 15.5767 29.2736 15.8872 29.2736 16.2109V17.4316H21.9494V16.2109ZM12.1008 37.0251L15.5517 24.3713C15.9059 23.0805 16.6737 21.9415 17.7374 21.129C18.801 20.3165 20.1019 19.8753 21.4404 19.873H33.0639L33.9184 27.6013C34.0179 28.4977 34.4447 29.326 35.1171 29.9272C35.7895 30.5284 36.6602 30.8603 37.5621 30.8593H50.2818C51.183 30.8591 52.0524 30.5267 52.7238 29.9256C53.3951 29.3244 53.8213 28.4969 53.9207 27.6013L54.7862 19.873H66.4097C67.7482 19.8753 69.049 20.3165 70.1127 21.129C71.1764 21.9415 71.9442 23.0805 72.2984 24.3713L75.7493 37.0251C77.3021 42.7154 77.8625 48.6309 77.4058 54.5116C77.2811 56.0447 76.5857 57.4752 75.4571 58.5204C74.3286 59.5655 72.849 60.1492 71.3108 60.1561C70.0024 60.161 68.7272 59.7438 67.6748 58.9664C66.6223 58.1891 65.8486 57.093 65.4686 55.8409L62.1788 45.1488C62.102 44.8992 61.9472 44.6809 61.7372 44.5257C61.5271 44.3706 61.2729 44.287 61.0118 44.287H57.3179C58.1258 43.2367 58.5659 41.9499 58.5704 40.6249C58.5704 39.0062 57.9273 37.4537 56.7827 36.3091C55.6381 35.1645 54.0856 34.5214 52.4669 34.5214C50.8481 34.5214 49.2957 35.1645 48.1511 36.3091C47.0064 37.4537 46.3634 39.0062 46.3634 40.6249C46.3679 41.9499 46.808 43.2367 47.6158 44.287H40.2282C41.036 43.2367 41.4761 41.9499 41.4806 40.6249C41.4806 39.0062 40.8375 37.4537 39.6929 36.3091C38.5483 35.1645 36.9958 34.5214 35.3771 34.5214C33.7583 34.5214 32.2059 35.1645 31.0613 36.3091C29.9166 37.4537 29.2736 39.0062 29.2736 40.6249C29.2781 41.9499 29.7182 43.2367 30.526 44.287H26.8322C26.5711 44.287 26.3168 44.3706 26.1068 44.5257C25.8968 44.6809 25.742 44.8992 25.6652 45.1488L22.3754 55.8409C21.9954 57.093 21.2217 58.1891 20.1692 58.9664C19.1167 59.7438 17.8416 60.161 16.5332 60.1561C14.995 60.1492 13.5154 59.5655 12.3868 58.5204C11.2583 57.4752 10.5629 56.0447 10.4382 54.5116C9.98347 48.6305 10.5459 42.7151 12.1008 37.0251V37.0251Z" fill="#31B7FB"/>
<path d="M64.063 27.1977C64.6666 27.1977 65.2566 27.0188 65.7584 26.6834C66.2603 26.3481 66.6514 25.8715 66.8824 25.3138C67.1134 24.7562 67.1738 24.1426 67.0561 23.5506C66.9383 22.9586 66.6477 22.4149 66.2209 21.9881C65.7941 21.5613 65.2503 21.2706 64.6583 21.1529C64.0664 21.0351 63.4528 21.0956 62.8951 21.3265C62.3375 21.5575 61.8609 21.9487 61.5255 22.4505C61.1902 22.9524 61.0112 23.5424 61.0112 24.146C61.0112 24.9554 61.3328 25.7316 61.9051 26.3039C62.4774 26.8762 63.2536 27.1977 64.063 27.1977V27.1977ZM64.063 23.5356C64.1837 23.5356 64.3017 23.5714 64.4021 23.6385C64.5024 23.7056 64.5807 23.8009 64.6269 23.9124C64.6731 24.0239 64.6851 24.1467 64.6616 24.2651C64.638 24.3835 64.5799 24.4922 64.4946 24.5776C64.4092 24.6629 64.3004 24.7211 64.1821 24.7446C64.0637 24.7682 63.9409 24.7561 63.8294 24.7099C63.7179 24.6637 63.6226 24.5854 63.5555 24.4851C63.4884 24.3847 63.4526 24.2667 63.4526 24.146C63.4526 23.9841 63.5169 23.8289 63.6314 23.7144C63.7459 23.5999 63.9011 23.5356 64.063 23.5356Z" fill="#31B7FB"/>
<path d="M64.063 31.4697C63.4594 31.4697 62.8694 31.6487 62.3675 31.984C61.8657 32.3194 61.4745 32.796 61.2435 33.3536C61.0126 33.9113 60.9521 34.5249 61.0699 35.1168C61.1876 35.7088 61.4783 36.2526 61.9051 36.6794C62.3319 37.1062 62.8756 37.3968 63.4676 37.5146C64.0596 37.6323 64.6732 37.5719 65.2308 37.3409C65.7885 37.1099 66.2651 36.7188 66.6004 36.2169C66.9357 35.7151 67.1147 35.1251 67.1147 34.5215C67.1147 33.7121 66.7932 32.9359 66.2209 32.3636C65.6486 31.7912 64.8724 31.4697 64.063 31.4697V31.4697ZM64.063 35.1318C63.9423 35.1318 63.8243 35.096 63.7239 35.029C63.6235 34.9619 63.5453 34.8666 63.4991 34.755C63.4529 34.6435 63.4408 34.5208 63.4644 34.4024C63.4879 34.284 63.546 34.1753 63.6314 34.0899C63.7168 34.0045 63.8255 33.9464 63.9439 33.9229C64.0623 33.8993 64.185 33.9114 64.2965 33.9576C64.4081 34.0038 64.5034 34.082 64.5705 34.1824C64.6375 34.2828 64.6733 34.4008 64.6733 34.5215C64.6733 34.6833 64.609 34.8386 64.4946 34.9531C64.3801 35.0675 64.2249 35.1318 64.063 35.1318Z" fill="#31B7FB"/>
<path d="M59.1802 32.6904C59.7837 32.6904 60.3738 32.5114 60.8756 32.1761C61.3775 31.8408 61.7686 31.3642 61.9996 30.8065C62.2306 30.2489 62.291 29.6353 62.1733 29.0433C62.0555 28.4513 61.7649 27.9075 61.3381 27.4808C60.9113 27.054 60.3675 26.7633 59.7755 26.6456C59.1835 26.5278 58.5699 26.5882 58.0123 26.8192C57.4547 27.0502 56.9781 27.4413 56.6427 27.9432C56.3074 28.4451 56.1284 29.0351 56.1284 29.6387C56.1284 30.448 56.4499 31.2243 57.0223 31.7966C57.5946 32.3689 58.3708 32.6904 59.1802 32.6904ZM59.1802 29.0283C59.3009 29.0283 59.4189 29.0641 59.5193 29.1312C59.6196 29.1982 59.6979 29.2936 59.7441 29.4051C59.7903 29.5166 59.8023 29.6393 59.7788 29.7577C59.7552 29.8761 59.6971 29.9849 59.6117 30.0702C59.5264 30.1556 59.4176 30.2137 59.2992 30.2373C59.1808 30.2608 59.0581 30.2487 58.9466 30.2026C58.8351 30.1564 58.7397 30.0781 58.6727 29.9778C58.6056 29.8774 58.5698 29.7594 58.5698 29.6387C58.5698 29.4768 58.6341 29.3215 58.7486 29.2071C58.863 29.0926 59.0183 29.0283 59.1802 29.0283Z" fill="#31B7FB"/>
<path d="M65.894 29.6387C65.894 30.2422 66.073 30.8323 66.4084 31.3341C66.7437 31.836 67.2203 32.2271 67.7779 32.4581C68.3356 32.6891 68.9492 32.7495 69.5412 32.6318C70.1331 32.514 70.6769 32.2234 71.1037 31.7966C71.5305 31.3698 71.8211 30.826 71.9389 30.234C72.0567 29.642 71.9962 29.0284 71.7652 28.4708C71.5343 27.9132 71.1431 27.4366 70.6413 27.1012C70.1394 26.7659 69.5494 26.5869 68.9458 26.5869C68.1364 26.5869 67.3602 26.9084 66.7879 27.4808C66.2156 28.0531 65.894 28.8293 65.894 29.6387ZM68.9458 29.0283C69.0665 29.0283 69.1845 29.0641 69.2849 29.1312C69.3853 29.1982 69.4635 29.2936 69.5097 29.4051C69.5559 29.5166 69.568 29.6393 69.5444 29.7577C69.5209 29.8761 69.4627 29.9849 69.3774 30.0702C69.292 30.1556 69.1833 30.2137 69.0649 30.2373C68.9465 30.2608 68.8237 30.2487 68.7122 30.2026C68.6007 30.1564 68.5054 30.0781 68.4383 29.9778C68.3712 29.8774 68.3354 29.7594 68.3354 29.6387C68.3354 29.4768 68.3997 29.3215 68.5142 29.2071C68.6287 29.0926 68.7839 29.0283 68.9458 29.0283Z" fill="#31B7FB"/>
<path d="M18.2866 33.301H20.728V35.7424C20.728 36.0661 20.8566 36.3766 21.0855 36.6056C21.3145 36.8345 21.625 36.9631 21.9487 36.9631H26.8315C27.1553 36.9631 27.4658 36.8345 27.6947 36.6056C27.9236 36.3766 28.0522 36.0661 28.0522 35.7424V33.301H30.4936C30.8174 33.301 31.1278 33.1724 31.3568 32.9435C31.5857 32.7145 31.7143 32.404 31.7143 32.0803V27.1975C31.7143 26.8737 31.5857 26.5633 31.3568 26.3343C31.1278 26.1054 30.8174 25.9768 30.4936 25.9768H28.0522V23.5354C28.0522 23.2116 27.9236 22.9012 27.6947 22.6722C27.4658 22.4433 27.1553 22.3147 26.8315 22.3147H21.9487C21.625 22.3147 21.3145 22.4433 21.0855 22.6722C20.8566 22.9012 20.728 23.2116 20.728 23.5354V25.9768H18.2866C17.9629 25.9768 17.6524 26.1054 17.4235 26.3343C17.1945 26.5633 17.0659 26.8737 17.0659 27.1975V32.0803C17.0659 32.404 17.1945 32.7145 17.4235 32.9435C17.6524 33.1724 17.9629 33.301 18.2866 33.301ZM19.5073 28.4182H21.9487C22.2725 28.4182 22.583 28.2896 22.8119 28.0607C23.0408 27.8317 23.1694 27.5212 23.1694 27.1975V24.7561H25.6108V27.1975C25.6108 27.5212 25.7394 27.8317 25.9683 28.0607C26.1973 28.2896 26.5078 28.4182 26.8315 28.4182H29.2729V30.8596H26.8315C26.5078 30.8596 26.1973 30.9882 25.9683 31.2171C25.7394 31.446 25.6108 31.7565 25.6108 32.0803V34.5217H23.1694V32.0803C23.1694 31.7565 23.0408 31.446 22.8119 31.2171C22.583 30.9882 22.2725 30.8596 21.9487 30.8596H19.5073V28.4182Z" fill="#31B7FB"/>
<path d="M40.2593 22.3147H37.8179V24.7561H40.2593V22.3147Z" fill="#31B7FB"/>
<path d="M45.1416 22.3147H42.7002V24.7561H45.1416V22.3147Z" fill="#31B7FB"/>
<path d="M50.0244 22.3147H47.583V24.7561H50.0244V22.3147Z" fill="#31B7FB"/>
</svg>
