<svg width="16" height="16" viewBox="0 0 16 16" fill="none" xmlns="http://www.w3.org/2000/svg">
<path fill-rule="evenodd" clip-rule="evenodd" d="M1.2778 2C0.940291 2 0.666687 2.2736 0.666687 2.61111V10.5556C0.666687 10.8931 0.940291 11.1667 1.2778 11.1667H2.09474C1.96276 11.4445 1.88891 11.7553 1.88891 12.0833C1.88891 13.2646 2.84652 14.2222 4.0278 14.2222C5.20907 14.2222 6.16669 13.2646 6.16669 12.0833C6.16669 11.7553 6.09284 11.4445 5.96085 11.1667H10.0392C9.9072 11.4445 9.83335 11.7553 9.83335 12.0833C9.83335 13.2646 10.791 14.2222 11.9722 14.2222C13.1535 14.2222 14.1111 13.2646 14.1111 12.0833C14.1111 11.7553 14.0373 11.4445 13.9053 11.1667H14.7222C15.0597 11.1667 15.3334 10.8931 15.3334 10.5556V7.5C15.3334 7.33792 15.269 7.18248 15.1544 7.06788L13.321 5.23454C13.2064 5.11994 13.051 5.05555 12.8889 5.05555H11.0556V2.61111C11.0556 2.2736 10.782 2 10.4445 2H1.2778ZM11.0556 6.27777V9.94444H14.1111V7.75313L12.6358 6.27777H11.0556ZM9.83335 5.66557V3.22222H1.88891V9.94444H9.83335L9.83335 5.66666L9.83335 5.66557ZM4.0278 11.1667C3.52154 11.1667 3.11113 11.5771 3.11113 12.0833C3.11113 12.5896 3.52154 13 4.0278 13C4.53406 13 4.94446 12.5896 4.94446 12.0833C4.94446 11.5771 4.53406 11.1667 4.0278 11.1667ZM11.0556 12.0833C11.0556 11.5771 11.466 11.1667 11.9722 11.1667C12.4785 11.1667 12.8889 11.5771 12.8889 12.0833C12.8889 12.5896 12.4785 13 11.9722 13C11.466 13 11.0556 12.5896 11.0556 12.0833Z" fill="#D03737"/>
</svg>
